<svg width="5599" height="898" viewBox="0 0 5599 898" fill="none" xmlns="http://www.w3.org/2000/svg">
<path d="M784.772 439.211L751.605 418.677C751.329 415.452 751.018 412.23 750.672 409.011L779.172 382.444C780.579 381.11 781.624 379.441 782.211 377.594C782.798 375.746 782.907 373.779 782.527 371.878C782.147 369.977 781.292 368.203 780.041 366.722C778.79 365.242 777.183 364.102 775.372 363.411L738.939 349.777C738.038 346.628 737.083 343.494 736.072 340.377L758.805 308.811C759.945 307.233 760.662 305.391 760.888 303.458C761.114 301.525 760.842 299.566 760.097 297.768C759.352 295.97 758.159 294.393 756.631 293.187C755.104 291.981 753.294 291.186 751.372 290.877L712.972 284.644C711.473 281.742 709.929 278.864 708.339 276.011L724.472 240.577C726.139 236.977 725.772 232.777 723.572 229.511C721.372 226.244 717.639 224.311 713.672 224.444L674.672 225.811C672.671 223.277 670.615 220.788 668.505 218.344L677.472 180.377C677.914 178.484 677.866 176.51 677.332 174.64C676.799 172.771 675.797 171.068 674.423 169.693C673.048 168.319 671.345 167.317 669.476 166.784C667.606 166.25 665.632 166.202 663.739 166.644L625.772 175.611C623.294 173.529 620.794 171.473 618.272 169.444L619.639 130.444C619.732 128.493 619.319 126.551 618.44 124.806C617.561 123.061 616.246 121.574 614.623 120.487C612.999 119.4 611.123 118.752 609.175 118.604C607.227 118.456 605.274 118.815 603.505 119.644L568.072 135.811C565.205 134.244 562.339 132.677 559.439 131.177L553.172 92.7441C552.847 90.8323 552.042 89.0342 550.833 87.5179C549.624 86.0017 548.05 84.8169 546.258 84.0743C544.467 83.3318 542.516 83.0557 540.589 83.2719C538.662 83.4882 536.821 84.1897 535.239 85.3108L503.639 108.044C500.522 107.045 497.388 106.1 494.239 105.211L480.605 68.7775C479.914 66.9663 478.775 65.36 477.294 64.1087C475.813 62.8575 474.039 62.0021 472.138 61.6225C470.237 61.2429 468.27 61.3516 466.423 61.9383C464.575 62.525 462.906 63.5707 461.572 64.9775L435.005 93.5108C431.788 93.1486 428.566 92.8374 425.339 92.5775L404.805 59.4108C403.784 57.7567 402.357 56.3912 400.659 55.4441C398.961 54.4971 397.049 54 395.105 54C393.161 54 391.25 54.4971 389.552 55.4441C387.854 56.3912 386.427 57.7567 385.405 59.4108L364.872 92.5775C361.639 92.8441 358.405 93.1775 355.205 93.5108L328.605 64.9775C327.28 63.5533 325.612 62.4919 323.761 61.8945C321.909 61.297 319.936 61.1833 318.028 61.5642C316.12 61.9451 314.341 62.8079 312.861 64.0705C311.381 65.3331 310.249 66.9535 309.572 68.7775L295.939 105.211C292.772 106.111 289.672 107.077 286.539 108.044L254.972 85.3108C253.39 84.1897 251.549 83.4882 249.622 83.2719C247.694 83.0557 245.744 83.3318 243.952 84.0743C242.161 84.8169 240.587 86.0017 239.378 87.5179C238.169 89.0342 237.364 90.8323 237.039 92.7441L230.772 131.177C227.87 132.676 224.992 134.221 222.139 135.811L186.705 119.644C184.935 118.835 182.988 118.492 181.047 118.648C179.107 118.805 177.24 119.455 175.622 120.538C174.005 121.621 172.692 123.1 171.807 124.834C170.923 126.568 170.498 128.499 170.572 130.444L171.939 169.444C169.405 171.444 166.905 173.511 164.439 175.611L126.472 166.644C124.579 166.202 122.604 166.25 120.735 166.784C118.865 167.317 117.163 168.319 115.788 169.693C114.413 171.068 113.412 172.771 112.878 174.64C112.345 176.51 112.297 178.484 112.739 180.377L121.672 218.344C119.605 220.811 117.539 223.311 115.539 225.811L76.5387 224.444C74.5938 224.37 72.6622 224.796 70.9282 225.68C69.1941 226.564 67.7153 227.877 66.6326 229.494C65.5498 231.112 64.8992 232.979 64.7428 234.919C64.5863 236.86 64.9292 238.807 65.7387 240.577L81.9054 276.011C80.3143 278.863 78.7697 281.741 77.2721 284.644L38.8721 290.877C36.9602 291.203 35.1621 292.007 33.6459 293.217C32.1296 294.426 30.9448 296 30.2023 297.791C29.4597 299.583 29.1836 301.533 29.3999 303.46C29.6161 305.388 30.3176 307.228 31.4387 308.811L54.1721 340.377C53.1721 343.511 52.2387 346.611 51.3054 349.777L14.8721 363.411C13.0609 364.102 11.4546 365.242 10.2033 366.722C8.95206 368.203 8.09666 369.977 7.71709 371.878C7.33753 373.779 7.44618 375.746 8.03291 377.594C8.61963 379.441 9.66526 381.11 11.0721 382.444L39.5721 409.011C39.2098 412.228 38.8987 415.451 38.6387 418.677L5.47207 439.211C3.80215 440.22 2.42102 441.643 1.46236 443.342C0.503707 445.042 0 446.96 0 448.911C0 450.862 0.503707 452.78 1.46236 454.479C2.42102 456.179 3.80215 457.602 5.47207 458.611L38.6387 479.144C38.9054 482.377 39.2387 485.611 39.5721 488.811L11.0721 515.411C9.64785 516.736 8.58652 518.404 7.98906 520.255C7.39161 522.107 7.27792 524.08 7.65882 525.988C8.03972 527.896 8.90253 529.675 10.1651 531.155C11.4277 532.635 13.0481 533.767 14.8721 534.444L51.3054 548.077C52.2054 551.244 53.1721 554.377 54.1721 557.477L31.4387 589.044C30.2888 590.621 29.5643 592.468 29.335 594.406C29.1057 596.344 29.3793 598.309 30.1294 600.11C30.8796 601.912 32.0811 603.49 33.6182 604.693C35.1552 605.896 36.9761 606.683 38.9054 606.977L77.3054 613.211C78.8054 616.111 80.3387 618.977 81.9387 621.844L65.7721 657.277C64.9625 659.047 64.6196 660.995 64.7761 662.935C64.9326 664.875 65.5832 666.743 66.6659 668.361C67.7486 669.978 69.2275 671.291 70.9615 672.175C72.6956 673.059 74.6271 673.485 76.5721 673.411L115.539 672.044C117.572 674.577 119.605 677.077 121.705 679.544L112.772 717.544C112.327 719.436 112.374 721.411 112.907 723.28C113.44 725.149 114.442 726.851 115.818 728.224C117.194 729.597 118.899 730.595 120.769 731.123C122.64 731.652 124.614 731.693 126.505 731.244L164.472 722.311C166.939 724.411 169.439 726.444 171.972 728.444L170.605 767.444C170.518 769.393 170.936 771.331 171.817 773.071C172.699 774.811 174.014 776.294 175.636 777.376C177.259 778.459 179.133 779.105 181.078 779.251C183.023 779.397 184.973 779.039 186.739 778.211L222.172 762.077C225.039 763.677 227.905 765.211 230.805 766.711L237.072 805.111C237.393 807.025 238.194 808.827 239.401 810.348C240.608 811.868 242.182 813.057 243.974 813.803C245.766 814.549 247.718 814.828 249.648 814.614C251.577 814.4 253.421 813.699 255.005 812.577L286.572 789.844C289.705 790.844 292.805 791.811 295.972 792.711L309.605 829.144C310.275 830.974 311.403 832.602 312.883 833.871C314.363 835.139 316.144 836.006 318.055 836.387C319.967 836.769 321.944 836.653 323.797 836.05C325.651 835.447 327.318 834.377 328.639 832.944L355.239 804.444C358.439 804.811 361.672 805.111 364.905 805.411L385.439 838.577C386.466 840.224 387.895 841.582 389.592 842.523C391.289 843.464 393.198 843.958 395.139 843.958C397.079 843.958 398.988 843.464 400.685 842.523C402.382 841.582 403.811 840.224 404.839 838.577L425.372 805.411C428.605 805.111 431.839 804.811 435.039 804.444L461.605 832.944C462.939 834.351 464.608 835.396 466.456 835.983C468.304 836.57 470.27 836.679 472.171 836.299C474.072 835.919 475.846 835.064 477.327 833.813C478.808 832.562 479.947 830.955 480.639 829.144L494.272 792.711C497.439 791.811 500.572 790.844 503.672 789.844L535.239 812.577C536.816 813.727 538.662 814.452 540.6 814.681C542.538 814.91 544.503 814.637 546.305 813.887C548.107 813.136 549.685 811.935 550.888 810.398C552.09 808.861 552.877 807.04 553.172 805.111L559.439 766.711C562.339 765.211 565.205 763.644 568.072 762.077L603.505 778.211C605.273 779.009 607.216 779.344 609.149 779.185C611.082 779.026 612.944 778.377 614.557 777.301C616.171 776.224 617.484 774.754 618.373 773.03C619.262 771.305 619.697 769.383 619.639 767.444L618.272 728.444C620.805 726.444 623.305 724.411 625.739 722.311L663.705 731.244C665.595 731.684 667.566 731.635 669.432 731.103C671.298 730.571 672.998 729.573 674.371 728.203C675.745 726.832 676.747 725.135 677.284 723.27C677.821 721.406 677.874 719.435 677.439 717.544L668.505 679.544C670.572 677.077 672.639 674.577 674.639 672.044L713.639 673.411C715.59 673.504 717.532 673.091 719.277 672.212C721.021 671.333 722.509 670.018 723.596 668.395C724.683 666.771 725.331 664.895 725.479 662.947C725.627 660.999 725.268 659.046 724.439 657.277L708.305 621.844C709.872 618.977 711.439 616.111 712.939 613.211L751.339 606.977C753.251 606.652 755.049 605.847 756.565 604.638C758.081 603.429 759.266 601.855 760.008 600.064C760.751 598.272 761.027 596.322 760.811 594.395C760.595 592.467 759.893 590.626 758.772 589.044L736.039 557.477L738.905 548.077L775.339 534.444C777.163 533.767 778.783 532.635 780.046 531.155C781.308 529.675 782.171 527.896 782.552 525.988C782.933 524.08 782.819 522.107 782.222 520.255C781.624 518.404 780.563 516.736 779.139 515.411L750.639 488.811C750.972 485.611 751.305 482.377 751.572 479.144L784.739 458.611C786.409 457.602 787.79 456.179 788.748 454.479C789.707 452.78 790.211 450.862 790.211 448.911C790.211 446.96 789.707 445.042 788.748 443.342C787.79 441.643 786.442 440.22 784.772 439.211ZM562.805 714.311C559.787 713.665 556.926 712.431 554.384 710.68C551.843 708.928 549.671 706.693 547.994 704.102C544.606 698.87 543.435 692.506 544.739 686.411C545.384 683.392 546.618 680.531 548.37 677.99C550.121 675.448 552.356 673.277 554.947 671.599C560.179 668.211 566.543 667.04 572.639 668.344C575.657 668.992 578.518 670.228 581.058 671.981C583.599 673.735 585.769 675.972 587.445 678.564C589.122 681.156 590.271 684.053 590.827 687.09C591.384 690.126 591.337 693.243 590.689 696.261C590.041 699.279 588.805 702.14 587.051 704.681C585.298 707.221 583.061 709.391 580.469 711.067C577.876 712.744 574.979 713.893 571.943 714.449C568.906 715.006 565.824 714.959 562.805 714.311ZM551.539 638.111C548.789 637.519 545.95 637.476 543.184 637.984C540.418 638.492 537.78 639.54 535.42 641.07C533.06 642.6 531.025 644.581 529.433 646.899C527.84 649.217 526.721 651.826 526.139 654.577L514.372 709.511C478.039 726.011 437.705 735.177 395.205 735.177C353.179 735.239 311.65 726.091 273.539 708.377L261.772 653.444C261.19 650.693 260.071 648.085 258.478 645.769C256.884 643.452 254.849 641.474 252.489 639.946C250.128 638.419 247.489 637.374 244.723 636.87C241.958 636.366 239.119 636.414 236.372 637.011L187.872 647.411C178.86 638.131 170.485 628.253 162.805 617.844H398.805C401.472 617.844 403.272 617.377 403.272 614.944V531.444C403.272 529.011 401.505 528.544 398.805 528.544H329.772V475.611H404.439C411.239 475.611 440.872 477.544 450.339 515.411C453.305 527.044 459.805 564.944 464.272 577.077C468.705 590.677 486.772 617.844 506.039 617.844H623.639C625.071 617.824 626.498 617.679 627.905 617.411C619.751 628.488 610.817 638.971 601.172 648.777L551.539 638.111ZM225.105 713.177C222.087 713.825 218.971 713.872 215.935 713.316C212.898 712.759 210.001 711.61 207.409 709.934C204.816 708.258 202.58 706.088 200.826 703.547C199.073 701.007 197.837 698.146 197.189 695.127C196.541 692.109 196.494 688.993 197.05 685.957C197.607 682.92 198.756 680.023 200.432 677.431C202.108 674.838 204.278 672.602 206.819 670.848C209.359 669.095 212.221 667.859 215.239 667.211C221.334 665.902 227.7 667.069 232.935 670.454C238.171 673.839 241.847 679.165 243.155 685.261C244.464 691.356 243.297 697.722 239.912 702.957C236.527 708.193 231.201 711.869 225.105 713.177ZM135.572 350.111C136.94 352.947 137.724 356.028 137.878 359.173C138.032 362.317 137.552 365.461 136.467 368.416C135.383 371.372 133.715 374.08 131.564 376.378C129.413 378.677 126.821 380.52 123.944 381.798C121.066 383.076 117.962 383.762 114.814 383.817C111.666 383.872 108.539 383.293 105.619 382.116C102.699 380.939 100.045 379.187 97.8156 376.964C95.5858 374.742 93.8253 372.094 92.6387 369.177C90.338 363.523 90.3278 357.196 92.6103 351.534C94.8927 345.872 99.2887 341.321 104.868 338.843C110.447 336.366 116.771 336.156 122.502 338.259C128.232 340.362 132.92 344.613 135.572 350.111ZM108.072 415.344L158.605 392.877C161.176 391.736 163.497 390.1 165.434 388.061C167.372 386.023 168.889 383.622 169.898 380.997C170.907 378.371 171.389 375.573 171.316 372.761C171.243 369.95 170.616 367.18 169.472 364.611L159.072 341.077H200.005V525.544H117.439C107.257 489.744 104.087 452.313 108.105 415.311L108.072 415.344ZM329.805 397.444V343.077H427.272C432.305 343.077 462.805 348.911 462.805 371.711C462.805 390.644 439.405 397.444 420.172 397.444H329.805ZM684.005 446.377C684.005 453.577 683.739 460.744 683.205 467.811H653.572C650.605 467.811 649.405 469.744 649.405 472.677V486.277C649.405 518.311 631.339 525.277 615.505 527.044C600.439 528.744 583.739 520.744 581.672 511.511C572.772 461.511 557.972 450.811 534.572 432.377C563.605 413.944 593.805 386.744 593.805 350.344C593.805 311.044 566.839 286.277 548.472 274.111C522.705 257.111 494.172 253.711 486.472 253.711H180.039C222.389 206.357 279.18 174.3 341.605 162.511L377.739 200.411C379.674 202.448 381.993 204.082 384.563 205.221C387.132 206.359 389.901 206.978 392.71 207.043C395.519 207.108 398.314 206.618 400.933 205.6C403.552 204.582 405.944 203.056 407.972 201.111L448.372 162.444C489.565 170.17 528.585 186.765 562.723 211.078C596.862 235.392 625.303 266.841 646.072 303.244L618.405 365.744C616.112 370.935 615.969 376.823 618.005 382.12C620.041 387.417 624.092 391.692 629.272 394.011L682.539 417.677C683.472 427.144 683.939 436.677 683.939 446.377H684.005ZM377.772 130.311C380.002 128.183 382.63 126.516 385.504 125.404C388.379 124.292 391.445 123.757 394.526 123.83C397.607 123.903 400.644 124.582 403.463 125.828C406.282 127.074 408.828 128.864 410.955 131.094C413.083 133.324 414.75 135.952 415.862 138.827C416.974 141.701 417.509 144.767 417.436 147.848C417.363 150.929 416.685 153.966 415.438 156.785C414.192 159.604 412.402 162.15 410.172 164.277C405.607 168.216 399.702 170.249 393.68 169.957C387.658 169.664 381.978 167.068 377.816 162.705C373.655 158.342 371.329 152.546 371.321 146.517C371.313 140.487 373.622 134.685 377.772 130.311ZM652.339 351.244C657.572 339.377 671.439 334.044 683.272 339.311C687.526 341.188 691.128 344.285 693.621 348.21C696.114 352.135 697.387 356.712 697.278 361.361C697.17 366.009 695.684 370.521 693.01 374.325C690.336 378.13 686.593 381.055 682.256 382.731C677.918 384.407 673.181 384.759 668.644 383.741C664.106 382.724 659.973 380.384 656.766 377.016C653.56 373.648 651.424 369.405 650.63 364.824C649.836 360.242 650.419 355.528 652.305 351.277L652.339 351.244Z" fill="white"/>
<path d="M1180.52 264.062C1189.37 264.062 1195.62 266.016 1199.27 269.922C1203.17 273.568 1205.12 279.818 1205.12 288.672V544.922H1235.2C1241.45 544.922 1246.27 545.964 1249.66 548.047C1253.04 550.13 1255.52 554.036 1257.08 559.766C1258.9 565.495 1259.81 573.828 1259.81 584.766C1259.81 595.703 1258.9 604.036 1257.08 609.766C1255.52 615.495 1253.04 619.531 1249.66 621.875C1246.27 623.958 1241.45 625 1235.2 625H1147.7C1138.85 625 1132.47 623.177 1128.56 619.531C1124.92 615.625 1123.09 609.245 1123.09 600.391V543.75C1088.72 603.646 1045.75 633.594 994.188 633.594C970.49 633.594 949.656 628.385 931.688 617.969C913.979 607.552 900.307 592.839 890.672 573.828C881.036 554.557 876.219 532.031 876.219 506.25V344.141H846.141C839.891 344.141 835.073 343.099 831.688 341.016C828.302 338.672 825.698 334.635 823.875 328.906C822.312 323.177 821.531 314.844 821.531 303.906C821.531 292.969 822.312 284.635 823.875 278.906C825.698 273.177 828.302 269.271 831.688 267.188C835.073 265.104 839.891 264.062 846.141 264.062H949.266C958.12 264.062 964.37 266.016 968.016 269.922C971.922 273.568 973.875 279.818 973.875 288.672V483.203C973.875 503.516 977.391 518.88 984.422 529.297C991.453 539.714 1003.17 544.922 1019.58 544.922C1034.68 544.922 1049.01 538.672 1062.55 526.172C1076.09 513.411 1086.9 496.484 1094.97 475.391C1103.3 454.297 1107.47 431.771 1107.47 407.812V344.141H1065.67C1059.42 344.141 1054.6 343.099 1051.22 341.016C1047.83 338.672 1045.23 334.635 1043.41 328.906C1041.84 323.177 1041.06 314.844 1041.06 303.906C1041.06 292.969 1041.84 284.635 1043.41 278.906C1045.23 273.177 1047.83 269.271 1051.22 267.188C1054.6 265.104 1059.42 264.062 1065.67 264.062H1180.52ZM1635.59 255.469C1652.26 255.469 1664.11 257.422 1671.14 261.328C1678.17 264.974 1681.69 271.224 1681.69 280.078V362.5C1681.69 371.354 1678.82 377.734 1673.09 381.641C1667.62 385.286 1658.51 387.109 1645.75 387.109C1631.95 387.109 1622.44 384.375 1617.23 378.906C1601.87 362.5 1584.29 350.911 1564.5 344.141C1544.71 337.109 1521.79 333.594 1495.75 333.594C1480.39 333.594 1468.28 336.328 1459.42 341.797C1450.83 347.266 1446.53 354.557 1446.53 363.672C1446.53 374.609 1456.17 382.422 1475.44 387.109C1485.59 389.714 1502.91 392.188 1527.39 394.531C1551.61 397.396 1571.66 400.26 1587.55 403.125C1603.69 405.99 1618.93 410.286 1633.25 416.016C1654.08 424.609 1670.36 436.589 1682.08 451.953C1693.8 467.318 1699.66 487.63 1699.66 512.891C1699.66 537.63 1693.54 559.115 1681.3 577.344C1669.32 595.312 1651.61 609.245 1628.17 619.141C1604.99 628.776 1577 633.594 1544.19 633.594C1507.99 633.594 1474.4 624.349 1443.41 605.859V608.984C1443.41 617.839 1439.63 624.089 1432.08 627.734C1424.53 631.641 1412.42 633.594 1395.75 633.594C1379.08 633.594 1367.23 631.641 1360.2 627.734C1353.17 624.089 1349.66 617.839 1349.66 608.984V521.875C1349.66 513.281 1352.65 507.031 1358.64 503.125C1364.89 499.219 1374.4 497.266 1387.16 497.266C1403.04 497.266 1413.85 500.911 1419.58 508.203C1432.6 524.609 1449.27 536.589 1469.58 544.141C1489.89 551.693 1512.16 555.469 1536.38 555.469C1578.04 555.469 1598.88 544.661 1598.88 523.047C1598.88 516.536 1595.88 511.328 1589.89 507.422C1584.16 503.516 1575.57 500.26 1564.11 497.656C1557.6 496.354 1542.49 494.01 1518.8 490.625C1492.49 487.5 1469.84 483.984 1450.83 480.078C1432.08 475.911 1415.02 469.531 1399.66 460.938C1363.72 441.146 1345.75 409.896 1345.75 367.188C1345.75 344.531 1351.87 324.74 1364.11 307.812C1376.35 290.885 1393.15 277.995 1414.5 269.141C1436.11 260.026 1460.33 255.469 1487.16 255.469C1526.48 255.469 1561.38 264.974 1591.84 283.984V280.078C1591.84 271.224 1594.97 264.974 1601.22 261.328C1607.73 257.422 1619.19 255.469 1635.59 255.469ZM1950.83 152.734C1963.07 152.734 1972.44 153.646 1978.95 155.469C1985.72 157.031 1990.41 159.505 1993.02 162.891C1995.62 166.276 1996.92 171.094 1996.92 177.344V287.5H2141.84C2150.96 287.5 2157.34 290.495 2160.98 296.484C2164.63 302.474 2166.45 313.542 2166.45 329.688C2166.45 345.833 2164.63 356.901 2160.98 362.891C2157.34 368.62 2150.96 371.484 2141.84 371.484H1996.92V480.078C1996.92 523.307 2013.72 544.922 2047.31 544.922C2059.29 544.922 2073.22 542.318 2089.11 537.109C2105.26 531.641 2124.01 524.089 2145.36 514.453C2151.09 512.109 2155.65 510.938 2159.03 510.938C2164.5 510.938 2169.58 513.281 2174.27 517.969C2178.95 522.396 2183.38 529.818 2187.55 540.234C2192.23 551.953 2194.58 561.458 2194.58 568.75C2194.58 574.479 2193.15 579.297 2190.28 583.203C2187.68 586.849 2183.64 590.104 2178.17 592.969C2124.53 620.052 2078.04 633.594 2038.72 633.594C1993.41 633.594 1958.77 620.964 1934.81 595.703C1911.11 570.443 1899.27 533.594 1899.27 485.156V371.484H1823.88C1814.76 371.484 1808.38 368.62 1804.73 362.891C1801.09 356.901 1799.27 345.833 1799.27 329.688C1799.27 313.542 1801.09 302.474 1804.73 296.484C1808.38 290.495 1814.76 287.5 1823.88 287.5H1899.27V177.344C1899.27 168.49 1903.17 162.24 1910.98 158.594C1919.06 154.688 1932.34 152.734 1950.83 152.734ZM2510.59 264.062C2519.45 264.062 2525.7 266.016 2529.34 269.922C2533.25 273.568 2535.2 279.818 2535.2 288.672V544.922H2644.97C2651.22 544.922 2656.04 546.094 2659.42 548.438C2662.81 550.521 2665.28 554.427 2666.84 560.156C2668.67 565.885 2669.58 574.219 2669.58 585.156C2669.58 596.094 2668.67 604.427 2666.84 610.156C2665.28 615.885 2662.81 619.792 2659.42 621.875C2656.04 623.958 2651.22 625 2644.97 625H2330.91C2324.66 625 2319.84 623.958 2316.45 621.875C2313.07 619.792 2310.46 615.885 2308.64 610.156C2307.08 604.427 2306.3 596.094 2306.3 585.156C2306.3 574.219 2307.08 565.885 2308.64 560.156C2310.46 554.427 2313.07 550.521 2316.45 548.438C2319.84 546.094 2324.66 544.922 2330.91 544.922H2437.55V344.141H2354.34C2348.09 344.141 2343.28 343.099 2339.89 341.016C2336.51 338.932 2333.9 335.026 2332.08 329.297C2330.52 323.568 2329.73 315.234 2329.73 304.297C2329.73 293.359 2330.52 285.026 2332.08 279.297C2333.9 273.568 2336.51 269.661 2339.89 267.578C2343.28 265.234 2348.09 264.062 2354.34 264.062H2510.59ZM2485.2 92.5781C2503.69 92.5781 2516.58 94.5312 2523.88 98.4375C2531.43 102.083 2535.2 108.333 2535.2 117.188V181.25C2535.2 190.104 2531.69 196.484 2524.66 200.391C2517.89 204.036 2505.39 205.859 2487.16 205.859C2468.93 205.859 2456.04 204.036 2448.48 200.391C2441.19 196.484 2437.55 190.104 2437.55 181.25V117.188C2437.55 108.073 2440.93 101.693 2447.7 98.0469C2454.47 94.401 2466.97 92.5781 2485.2 92.5781ZM3093.8 255.469C3109.94 255.469 3121.01 257.292 3127 260.938C3132.99 264.583 3135.98 270.964 3135.98 280.078V405.469C3135.98 414.323 3131.95 420.703 3123.88 424.609C3116.06 428.255 3102.91 430.078 3084.42 430.078C3072.18 430.078 3062.68 429.297 3055.91 427.734C3049.4 425.911 3044.84 423.307 3042.23 419.922C3039.63 416.536 3038.33 411.719 3038.33 405.469C3038.33 394.531 3035.59 384.375 3030.12 375C3024.92 365.625 3016.97 358.203 3006.3 352.734C2995.88 347.005 2983.25 344.141 2968.41 344.141C2949.66 344.141 2933.25 348.307 2919.19 356.641C2905.12 364.714 2894.19 376.432 2886.38 391.797C2878.82 406.901 2875.05 424.479 2875.05 444.531C2875.05 464.583 2878.82 482.292 2886.38 497.656C2894.19 512.76 2905.12 524.479 2919.19 532.812C2933.25 540.885 2949.66 544.922 2968.41 544.922C2988.46 544.922 3008.9 541.667 3029.73 535.156C3050.83 528.646 3071.27 519.661 3091.06 508.203C3095.75 505.599 3100.05 504.297 3103.95 504.297C3115.67 504.297 3125.96 514.583 3134.81 535.156C3139.5 546.354 3141.84 555.859 3141.84 563.672C3141.84 575.391 3136.24 584.375 3125.05 590.625C3100.83 604.167 3075.31 614.714 3048.48 622.266C3021.92 629.818 2995.23 633.594 2968.41 633.594C2928.82 633.594 2894.06 625.521 2864.11 609.375C2834.16 593.229 2810.98 570.833 2794.58 542.188C2778.43 513.542 2770.36 480.99 2770.36 444.531C2770.36 408.073 2778.56 375.521 2794.97 346.875C2811.38 317.969 2833.64 295.573 2861.77 279.688C2890.15 263.542 2921.79 255.469 2956.69 255.469C2998.88 255.469 3028.69 270.703 3046.14 301.172V280.078C3046.14 271.224 3049.92 264.974 3057.47 261.328C3065.02 257.422 3077.13 255.469 3093.8 255.469ZM3643.8 161.328C3650.05 161.328 3654.86 162.5 3658.25 164.844C3661.64 166.927 3664.11 170.833 3665.67 176.562C3667.49 182.292 3668.41 190.625 3668.41 201.562C3668.41 212.5 3667.49 220.833 3665.67 226.562C3664.11 232.292 3661.64 236.198 3658.25 238.281C3654.86 240.365 3650.05 241.406 3643.8 241.406H3621.53V607.812C3621.53 616.406 3618.28 622.786 3611.77 626.953C3605.26 631.38 3594.19 633.594 3578.56 633.594C3566.58 633.594 3557.6 631.901 3551.61 628.516C3545.88 625.391 3540.8 620.182 3536.38 612.891L3360.59 321.875H3359.03V544.922H3402.39C3408.64 544.922 3413.46 546.094 3416.84 548.438C3420.23 550.521 3422.7 554.427 3424.27 560.156C3426.09 565.885 3427 574.219 3427 585.156C3427 596.094 3426.09 604.427 3424.27 610.156C3422.7 615.885 3420.23 619.792 3416.84 621.875C3413.46 623.958 3408.64 625 3402.39 625H3244.58C3238.33 625 3233.51 623.958 3230.12 621.875C3226.74 619.792 3224.14 615.885 3222.31 610.156C3220.75 604.427 3219.97 596.094 3219.97 585.156C3219.97 574.219 3220.75 565.885 3222.31 560.156C3224.14 554.427 3226.74 550.521 3230.12 548.438C3233.51 546.094 3238.33 544.922 3244.58 544.922H3270.75V241.406H3244.58C3238.33 241.406 3233.51 240.365 3230.12 238.281C3226.74 236.198 3224.14 232.292 3222.31 226.562C3220.75 220.833 3219.97 212.5 3219.97 201.562C3219.97 190.625 3220.75 182.292 3222.31 176.562C3224.14 170.833 3226.74 166.927 3230.12 164.844C3233.51 162.5 3238.33 161.328 3244.58 161.328H3347.7C3358.12 161.328 3365.41 164.844 3369.58 171.875L3531.69 440.234H3533.25V241.406H3497.31C3491.06 241.406 3486.24 240.365 3482.86 238.281C3479.47 236.198 3476.87 232.292 3475.05 226.562C3473.48 220.833 3472.7 212.5 3472.7 201.562C3472.7 190.625 3473.48 182.292 3475.05 176.562C3476.87 170.833 3479.47 166.927 3482.86 164.844C3486.24 162.5 3491.06 161.328 3497.31 161.328H3643.8ZM3919.97 255.469C3959.55 255.469 3994.19 263.542 4023.88 279.688C4053.56 295.833 4076.35 318.229 4092.23 346.875C4108.38 375.521 4116.45 408.073 4116.45 444.531C4116.45 480.99 4108.38 513.542 4092.23 542.188C4076.35 570.833 4053.56 593.229 4023.88 609.375C3994.19 625.521 3959.55 633.594 3919.97 633.594C3880.39 633.594 3845.75 625.521 3816.06 609.375C3786.38 593.229 3763.46 570.833 3747.31 542.188C3731.43 513.542 3723.48 480.99 3723.48 444.531C3723.48 408.073 3731.43 375.521 3747.31 346.875C3763.46 318.229 3786.38 295.833 3816.06 279.688C3845.75 263.542 3880.39 255.469 3919.97 255.469ZM3919.97 344.141C3901.22 344.141 3884.94 348.307 3871.14 356.641C3857.34 364.714 3846.66 376.302 3839.11 391.406C3831.82 406.51 3828.17 424.219 3828.17 444.531C3828.17 464.844 3831.82 482.552 3839.11 497.656C3846.66 512.76 3857.34 524.479 3871.14 532.812C3884.94 540.885 3901.22 544.922 3919.97 544.922C3938.72 544.922 3954.99 540.885 3968.8 532.812C3982.6 524.479 3993.15 512.76 4000.44 497.656C4007.99 482.552 4011.77 464.844 4011.77 444.531C4011.77 424.219 4007.99 406.51 4000.44 391.406C3993.15 376.302 3982.6 364.714 3968.8 356.641C3954.99 348.307 3938.72 344.141 3919.97 344.141ZM4349.27 152.734C4361.51 152.734 4370.88 153.646 4377.39 155.469C4384.16 157.031 4388.85 159.505 4391.45 162.891C4394.06 166.276 4395.36 171.094 4395.36 177.344V287.5H4540.28C4549.4 287.5 4555.78 290.495 4559.42 296.484C4563.07 302.474 4564.89 313.542 4564.89 329.688C4564.89 345.833 4563.07 356.901 4559.42 362.891C4555.78 368.62 4549.4 371.484 4540.28 371.484H4395.36V480.078C4395.36 523.307 4412.16 544.922 4445.75 544.922C4457.73 544.922 4471.66 542.318 4487.55 537.109C4503.69 531.641 4522.44 524.089 4543.8 514.453C4549.53 512.109 4554.08 510.938 4557.47 510.938C4562.94 510.938 4568.02 513.281 4572.7 517.969C4577.39 522.396 4581.82 529.818 4585.98 540.234C4590.67 551.953 4593.02 561.458 4593.02 568.75C4593.02 574.479 4591.58 579.297 4588.72 583.203C4586.11 586.849 4582.08 590.104 4576.61 592.969C4522.96 620.052 4476.48 633.594 4437.16 633.594C4391.84 633.594 4357.21 620.964 4333.25 595.703C4309.55 570.443 4297.7 533.594 4297.7 485.156V371.484H4222.31C4213.2 371.484 4206.82 368.62 4203.17 362.891C4199.53 356.901 4197.7 345.833 4197.7 329.688C4197.7 313.542 4199.53 302.474 4203.17 296.484C4206.82 290.495 4213.2 287.5 4222.31 287.5H4297.7V177.344C4297.7 168.49 4301.61 162.24 4309.42 158.594C4317.49 154.688 4330.78 152.734 4349.27 152.734ZM4884.81 255.469C4924.4 255.469 4958.12 264.062 4985.98 281.25C5013.85 298.177 5034.81 321.875 5048.88 352.344C5063.2 382.552 5070.36 417.188 5070.36 456.25C5070.36 465.104 5068.41 471.354 5064.5 475C5060.85 478.646 5054.6 480.469 5045.75 480.469H4794.97C4799.92 501.302 4810.46 517.318 4826.61 528.516C4843.02 539.453 4863.72 544.922 4888.72 544.922C4929.08 544.922 4972.83 537.76 5019.97 523.438C5023.09 522.396 5026.22 521.875 5029.34 521.875C5035.07 521.875 5040.02 524.479 5044.19 529.688C5048.35 534.896 5052.13 543.75 5055.52 556.25C5058.12 565.885 5059.42 574.089 5059.42 580.859C5059.42 587.63 5057.86 592.969 5054.73 596.875C5051.87 600.521 5047.05 603.516 5040.28 605.859C5014.24 614.453 4987.68 621.224 4960.59 626.172C4933.51 631.12 4906.95 633.594 4880.91 633.594C4841.32 633.594 4807.21 625.521 4778.56 609.375C4749.92 593.229 4728.04 570.964 4712.94 542.578C4698.09 513.932 4690.67 481.25 4690.67 444.531C4690.67 408.073 4698.48 375.521 4714.11 346.875C4729.73 318.229 4752.26 295.833 4781.69 279.688C4811.11 263.542 4845.49 255.469 4884.81 255.469ZM4884.81 344.141C4837.16 344.141 4807.73 364.193 4796.53 404.297H4968.41C4963.98 385.286 4954.47 370.573 4939.89 360.156C4925.57 349.479 4907.21 344.141 4884.81 344.141ZM5473.09 255.469C5489.76 255.469 5501.61 257.422 5508.64 261.328C5515.67 264.974 5519.19 271.224 5519.19 280.078V362.5C5519.19 371.354 5516.32 377.734 5510.59 381.641C5505.12 385.286 5496.01 387.109 5483.25 387.109C5469.45 387.109 5459.94 384.375 5454.73 378.906C5439.37 362.5 5421.79 350.911 5402 344.141C5382.21 337.109 5359.29 333.594 5333.25 333.594C5317.89 333.594 5305.78 336.328 5296.92 341.797C5288.33 347.266 5284.03 354.557 5284.03 363.672C5284.03 374.609 5293.67 382.422 5312.94 387.109C5323.09 389.714 5340.41 392.188 5364.89 394.531C5389.11 397.396 5409.16 400.26 5425.05 403.125C5441.19 405.99 5456.43 410.286 5470.75 416.016C5491.58 424.609 5507.86 436.589 5519.58 451.953C5531.3 467.318 5537.16 487.63 5537.16 512.891C5537.16 537.63 5531.04 559.115 5518.8 577.344C5506.82 595.312 5489.11 609.245 5465.67 619.141C5442.49 628.776 5414.5 633.594 5381.69 633.594C5345.49 633.594 5311.9 624.349 5280.91 605.859V608.984C5280.91 617.839 5277.13 624.089 5269.58 627.734C5262.03 631.641 5249.92 633.594 5233.25 633.594C5216.58 633.594 5204.73 631.641 5197.7 627.734C5190.67 624.089 5187.16 617.839 5187.16 608.984V521.875C5187.16 513.281 5190.15 507.031 5196.14 503.125C5202.39 499.219 5211.9 497.266 5224.66 497.266C5240.54 497.266 5251.35 500.911 5257.08 508.203C5270.1 524.609 5286.77 536.589 5307.08 544.141C5327.39 551.693 5349.66 555.469 5373.88 555.469C5415.54 555.469 5436.38 544.661 5436.38 523.047C5436.38 516.536 5433.38 511.328 5427.39 507.422C5421.66 503.516 5413.07 500.26 5401.61 497.656C5395.1 496.354 5379.99 494.01 5356.3 490.625C5329.99 487.5 5307.34 483.984 5288.33 480.078C5269.58 475.911 5252.52 469.531 5237.16 460.938C5201.22 441.146 5183.25 409.896 5183.25 367.188C5183.25 344.531 5189.37 324.74 5201.61 307.812C5213.85 290.885 5230.65 277.995 5252 269.141C5273.61 260.026 5297.83 255.469 5324.66 255.469C5363.98 255.469 5398.88 264.974 5429.34 283.984V280.078C5429.34 271.224 5432.47 264.974 5438.72 261.328C5445.23 257.422 5456.69 255.469 5473.09 255.469Z" fill="white"/>
</svg>
